<?xml version="1.0" standalone="no"?>
<!DOCTYPE svg PUBLIC "-//W3C//DTD SVG 1.1//EN" "http://www.w3.org/Graphics/SVG/1.1/DTD/svg11.dtd" >
<svg xmlns="http://www.w3.org/2000/svg">
<metadata></metadata>
<defs>
<font id="RockwellStdBold" horiz-adv-x="724" >
<font-face units-per-em="2048" ascent="1391" descent="-657" />
<missing-glyph horiz-adv-x="512" />
<glyph unicode="&#xfb01;" horiz-adv-x="1280" d="M63 0v223h150v522h-150v224h150v82q0 160 124.5 262t334.5 102q61 0 109.5 -5t102 -20.5t93 -42t73.5 -72.5t52 -108l-305 -32q-16 41 -54.5 59t-80.5 18q-64 0 -100 -30t-36 -109v-104h572v-746h149v-223h-555v223h92v522h-258v-522h95v-223h-558z" />
<glyph unicode="&#xfb02;" horiz-adv-x="1280" d="M63 0v223h150v522h-150v224h150v82q0 69 27 131.5t81 116t147 85t214 31.5q106 0 174 -24h242v-1168h149v-223h-555v223h92v903q-7 42 -43 64t-77 22q-66 0 -102 -30t-36 -109v-104h140v-224h-140v-522h95v-223h-558z" />
<glyph horiz-adv-x="0" />
<glyph horiz-adv-x="2048" />
<glyph unicode=" "  horiz-adv-x="512" />
<glyph unicode="&#x09;" horiz-adv-x="512" />
<glyph unicode="&#xa0;" horiz-adv-x="512" />
<glyph unicode="!" d="M195 0v336h335v-336h-335zM207 1010v381h311v-381l-82 -525h-147z" />
<glyph unicode="&#x22;" horiz-adv-x="1130" d="M211 1055v336h221v-336l-29 -367h-163zM698 1055v336h222v-336l-29 -367h-164z" />
<glyph unicode="#" horiz-adv-x="1368" d="M72 340v223h194l56 266h-250v224h299l78 374h233l-78 -374h305l76 374h236l-78 -374h151v-224h-196l-58 -266h254v-223h-299l-80 -367h-233l80 367h-311l-78 -367h-234l78 367h-145zM500 563h309l55 266h-309z" />
<glyph unicode="$" horiz-adv-x="1153" d="M94 389h246q-4 -41 9.5 -85.5t47 -80t78.5 -41.5v424q-195 92 -276.5 184.5t-81.5 221.5q0 140 99.5 236.5t258.5 109.5v88h141v-88q181 -15 281 -115t100 -254h-245q-11 78 -43.5 118.5t-92.5 47.5v-332q86 -34 146 -63t119.5 -70t95.5 -86t58 -107t22 -137 q0 -166 -122.5 -272.5t-318.5 -110.5v-174h-141v174q-184 29 -279.5 126.5t-101.5 285.5zM362 1038q0 -44 24 -75.5t89 -71.5v264q-113 -21 -113 -117zM616 174q89 0 143 47.5t54 116.5q0 132 -197 207v-371z" />
<glyph unicode="%" horiz-adv-x="1898" d="M86 1051q0 175 84.5 269.5t241.5 94.5t241 -94.5t84 -269.5q0 -174 -84.5 -268.5t-240.5 -94.5t-241 94.5t-85 268.5zM326 1063q0 -125 19.5 -176t68.5 -51q25 0 42.5 16t26 47t12 65t3.5 80q0 123 -20.5 173.5t-69.5 50.5q-43 0 -62.5 -49.5t-19.5 -155.5zM358 0 l1006 1391h180l-1007 -1391h-179zM1157 328q0 175 84.5 269.5t241.5 94.5t241 -94.5t84 -269.5q0 -174 -84.5 -268.5t-240.5 -94.5t-241 94.5t-85 268.5zM1397 340q0 -125 19.5 -176t68.5 -51q25 0 42.5 16.5t26 47t12 65t3.5 80.5q0 123 -20 173t-70 50q-43 0 -62.5 -49.5 t-19.5 -155.5z" />
<glyph unicode="&#x26;" horiz-adv-x="1642" d="M76 403q0 147 101 256t284 193q-59 69 -85 128.5t-26 125.5q0 138 104.5 222.5t276.5 84.5q161 0 266 -80.5t105 -204.5q0 -94 -62 -174.5t-180 -140.5l199 -252q47 66 96 150.5t72 138.5h332v-223h-168q-29 -63 -77.5 -139.5t-86.5 -120.5l108 -144h224v-223h-412 l-125 154q-197 -179 -451 -179q-214 0 -354.5 121.5t-140.5 306.5zM393 446q0 -89 68.5 -149.5t167.5 -60.5q62 0 117.5 26t119.5 86l-264 332q-100 -40 -154.5 -101t-54.5 -133zM629 1141q0 -23 18 -53t74 -99q64 28 99.5 64.5t35.5 74.5q0 41 -34.5 71t-80.5 30t-79 -25.5 t-33 -62.5z" />
<glyph unicode="'" horiz-adv-x="575" d="M178 1055v336h221v-336l-28 -367h-164z" />
<glyph unicode="(" horiz-adv-x="704" d="M94 487q0 185 41.5 339t118 265.5t174.5 190.5t219 129v-201q-137 -74 -186 -243.5t-49 -479.5t49 -479.5t186 -243.5v-200q-121 50 -219 128.5t-174.5 190.5t-118 265.5t-41.5 338.5z" />
<glyph unicode=")" horiz-adv-x="704" d="M57 -236q137 74 186.5 244t49.5 479t-49.5 479t-186.5 244v201q121 -50 219 -129t174.5 -190.5t118 -265.5t41.5 -339t-41.5 -338.5t-118 -265.5t-174.5 -190.5t-219 -128.5v200z" />
<glyph unicode="*" horiz-adv-x="1173" d="M78 928l82 227l166 -49q32 -45 74 -75.5t135 -76.5q-11 166 -72 267v170h248v-170q-52 -79 -74 -267q95 46 137 76.5t74 75.5l166 49l82 -227l-170 -66q-36 16 -75.5 19.5t-74.5 -1t-108 -18.5q58 -69 104 -106.5t100 -57.5l99 -139l-201 -141l-102 141q0 107 -82 240 q-83 -135 -80 -240l-103 -141l-200 141l98 139q58 21 96.5 53t108.5 111q-119 23 -162.5 22t-95.5 -22z" />
<glyph unicode="+" horiz-adv-x="1368" d="M119 561v260h434v434h260v-434h434v-260h-434v-434h-260v434h-434z" />
<glyph unicode="," d="M195 0v336h335v-336q0 -191 -77.5 -279t-255.5 -88v152q87 11 126 60.5t39 154.5h-167z" />
<glyph unicode="-" horiz-adv-x="704" d="M72 348v270h559v-270h-559z" />
<glyph unicode="." d="M195 0v336h335v-336h-335z" />
<glyph unicode="/" horiz-adv-x="1040" d="M8 -25l740 1416h284l-737 -1416h-287z" />
<glyph unicode="0" horiz-adv-x="1130" d="M88 698q0 348 122.5 532.5t354.5 184.5t354.5 -184.5t122.5 -532.5q0 -347 -122.5 -531.5t-354.5 -184.5t-354.5 184.5t-122.5 531.5zM406 694q0 -252 38 -369.5t121 -117.5q84 0 122 112.5t38 378.5q0 187 -20 297.5t-54 152.5t-88 42q-83 0 -120 -118.5t-37 -377.5z " />
<glyph unicode="1" horiz-adv-x="1130" d="M221 1167v224h510v-1168h182v-223h-680v223h193v944h-205z" />
<glyph unicode="2" horiz-adv-x="1130" d="M90 0v74q0 115 32 215t82.5 172t112 136t123 117.5t112 104.5t82.5 110t32 122q0 64 -38.5 105.5t-95.5 41.5q-85 0 -122 -68.5t-45 -224.5l-256 13q-3 131 31 229t97 155.5t143 85t177 27.5q190 0 308 -106.5t118 -278.5q0 -83 -30 -153t-79.5 -120t-109.5 -95.5 t-124 -90t-119 -92t-98 -113.5t-58 -143h405v180h221v-403h-901z" />
<glyph unicode="3" horiz-adv-x="1130" d="M90 426l268 20q7 -120 46.5 -179.5t136.5 -59.5q80 0 132 57t52 148q0 108 -65.5 163.5t-196.5 40.5v234q109 2 168 49.5t59 134.5q0 69 -41 112.5t-106 43.5q-72 0 -111.5 -48.5t-38.5 -135.5l-260 20q9 185 122 287t308 102q198 0 313 -98t115 -268q0 -110 -50 -187 t-157 -129q258 -85 258 -334q0 -189 -130 -303t-345 -114q-440 0 -477 444z" />
<glyph unicode="4" horiz-adv-x="1130" d="M8 573l598 840h273v-840h135v-190h-135v-178h116v-205h-553v205h150v178h-510q-31 103 -74 190zM248 573h344v484h-4z" />
<glyph unicode="5" horiz-adv-x="1130" d="M74 373l262 33q17 -106 60 -152.5t124 -46.5q96 0 141.5 61t45.5 168q0 248 -181 248q-54 0 -92.5 -25t-75.5 -84l-221 111l39 705h782v-328h-202l-21 104h-358l-19 -333q64 44 117 61.5t121 17.5q192 0 310 -126t118 -330q0 -69 -14 -133t-49 -127.5t-88.5 -110 t-138.5 -75.5t-193 -29q-200 0 -320.5 100.5t-146.5 290.5z" />
<glyph unicode="6" horiz-adv-x="1130" d="M92 684q0 356 129.5 542.5t388.5 186.5q173 0 276 -98.5t118 -274.5l-240 -20q-12 41 -23 67.5t-29.5 54t-46.5 41t-65 13.5q-90 0 -148 -102t-59 -293q103 90 246 90q167 0 274 -110.5t107 -307.5q0 -243 -111.5 -367t-314.5 -124q-255 0 -378.5 172.5t-123.5 529.5z M393 606q2 -195 46.5 -297t148.5 -102q71 0 110 61.5t39 173.5q0 103 -46 163.5t-124 60.5q-89 0 -174 -60z" />
<glyph unicode="7" horiz-adv-x="1130" d="M139 979v412h869v-172q-119 -147 -219.5 -457t-100.5 -539h176v-223h-671v223h172q12 211 114 485t240 466h-354v-195h-226z" />
<glyph unicode="8" horiz-adv-x="1130" d="M80 391q0 120 63.5 207t184.5 133q-101 55 -154 138.5t-53 183.5q0 166 120.5 264t323.5 98t324 -98t121 -264q0 -100 -53 -183.5t-154 -138.5q123 -46 186.5 -133t63.5 -207q0 -64 -16 -121.5t-53.5 -110.5t-92.5 -92t-139 -62t-187 -23q-102 0 -185 22.5t-138 60.5 t-92 91t-53.5 111.5t-16.5 123.5zM379 414q0 -97 51 -156t137 -59t136.5 58.5t50.5 158.5q0 98 -49 157.5t-138 59.5q-84 0 -136 -61t-52 -158zM403 1012q0 -83 44.5 -134t117.5 -51q78 0 120 49.5t42 137.5q0 80 -39.5 132t-122.5 52q-75 0 -118.5 -50t-43.5 -136z" />
<glyph unicode="9" horiz-adv-x="1130" d="M111 922q0 243 111.5 367t314.5 124q255 0 378 -172t123 -530q0 -356 -129.5 -542.5t-388.5 -186.5q-174 0 -276 98t-117 274l240 21q12 -41 23 -67.5t29 -54t46 -41t65 -13.5q90 0 148 102t59 293q-103 -90 -245 -90q-167 0 -274 110.5t-107 307.5zM393 952 q0 -103 46 -163t124 -60q91 0 174 59q-2 195 -46 297.5t-148 102.5q-71 0 -110.5 -62t-39.5 -174z" />
<glyph unicode=":" d="M195 0v336h335v-336h-335zM195 633v336h335v-336h-335z" />
<glyph unicode=";" d="M195 0v336h335v-336q0 -191 -77.5 -279t-255.5 -88v152q87 11 126 60.5t39 154.5h-167zM195 633v336h335v-336h-335z" />
<glyph unicode="&#x3c;" horiz-adv-x="1366" d="M119 565v238l1126 467v-283l-768 -303l768 -303v-283z" />
<glyph unicode="=" horiz-adv-x="1366" d="M119 313v260h1128v-260h-1128zM119 795v260h1128v-260h-1128z" />
<glyph unicode="&#x3e;" horiz-adv-x="1366" d="M121 98v283l768 303l-768 303v283l1126 -467v-238z" />
<glyph unicode="?" horiz-adv-x="1153" d="M55 993q0 202 136 312t366 110q224 0 355.5 -110t131.5 -297q0 -174 -117 -282t-315 -99l-32 -146h-144l-28 355l12 6q57 -17 112 -12t98.5 24.5t70 61.5t26.5 100q0 33 -10.5 64t-32 58.5t-59.5 44.5t-88 17q-87 0 -138.5 -54.5t-33.5 -152.5h-310zM338 0v336h336v-336 h-336z" />
<glyph unicode="@" horiz-adv-x="2004" d="M61 483q0 92 15.5 186.5t52.5 194.5t91.5 190t137.5 170.5t186.5 139t243.5 93t302 34.5q249 0 442.5 -98.5t299 -272t105.5 -391.5q0 -143 -49.5 -276t-136 -233t-210.5 -160t-265 -60q-156 0 -182 117q-111 -117 -269 -117q-185 0 -286 122.5t-101 319.5q0 49 10 105.5 t32 118.5t53 121t76 113t98.5 94.5t123 64.5t146.5 24q177 0 266 -135l25 111h264l-164 -772q-7 -38 3.5 -60t35.5 -22q24 0 65.5 21.5t90.5 67t92.5 106t72.5 150t29 187.5q0 78 -21.5 154.5t-72.5 153.5t-126.5 135t-194.5 94.5t-265 36.5q-162 0 -298 -45.5t-231.5 -124 t-162 -184t-98 -225.5t-31.5 -249q0 -347 220 -538t628 -191q217 0 387 60t287 204h213q-117 -228 -342 -336t-566 -108q-212 0 -384 48t-289.5 131t-197 199t-115.5 248.5t-36 282.5zM696 426q0 -119 50 -181.5t135 -62.5q73 0 134.5 51t97.5 127.5t55.5 158t19.5 151.5 q0 106 -51 169.5t-129 63.5q-66 0 -121 -35t-89 -88t-58 -119t-34 -125.5t-10 -109.5z" />
<glyph unicode="A" horiz-adv-x="1429" d="M-4 0v236h174l272 919h-186v236h907v-236h-186l291 -919h164v-236h-676v236h174l-66 237h-360l-76 -237h186v-236h-618zM565 678h242l-113 420h-4z" />
<glyph unicode="B" horiz-adv-x="1429" d="M66 0v236h174v919h-174v236h722q129 0 221 -21.5t156 -85.5q107 -107 107 -258q0 -206 -197 -287q250 -94 250 -333q0 -83 -29.5 -154.5t-89 -128.5t-161 -90t-234.5 -33h-745zM602 236h146q115 0 159.5 48.5t44.5 135.5q0 92 -55 139t-139 47h-156v-370zM602 842h141 q81 0 123.5 44.5t42.5 117.5t-42 112t-140 39h-125v-313z" />
<glyph unicode="C" horiz-adv-x="1599" d="M76 696q0 318 203 517.5t528 199.5q251 0 418 -131v109h235v-490h-235q-21 52 -50.5 101t-56.5 71q-72 56 -120.5 74t-118.5 18q-187 0 -300.5 -129.5t-113.5 -343.5q0 -202 109 -329t282 -127q145 0 247 95t140 267l275 -131q-30 -109 -85 -194t-122.5 -139t-150.5 -89 t-163.5 -49t-167.5 -14q-171 0 -305.5 46t-216.5 117.5t-136 168.5t-74.5 190.5t-20.5 191.5z" />
<glyph unicode="D" horiz-adv-x="1642" d="M68 0v236h211v919h-211v236h727q195 0 329.5 -43t237.5 -146q199 -199 199 -510q0 -109 -26.5 -210t-81 -189t-132.5 -153t-187.5 -102.5t-238.5 -37.5h-827zM641 236h137q202 0 304 120.5t102 333.5q0 225 -108 345t-310 120h-125v-919z" />
<glyph unicode="E" horiz-adv-x="1366" d="M70 0v236h163v919h-163v236h1222v-441h-264v205h-432v-319h348v-236h-348v-364h432v206h264v-442h-1222z" />
<glyph unicode="F" horiz-adv-x="1323" d="M57 0v236h199v919h-199v236h1246v-428h-267v192h-418v-321h302v-236h-302v-362h213v-236h-774z" />
<glyph unicode="G" horiz-adv-x="1728" d="M98 698q0 208 93.5 371t262 253.5t382.5 90.5q134 0 247.5 -35.5t186.5 -101.5v115h235v-494h-235q-41 124 -146 197q-100 71 -237 71q-178 0 -289 -123t-111 -321q0 -126 35.5 -222.5t95.5 -152t130.5 -83t148.5 -27.5q123 0 206.5 59.5t115.5 171.5h-244v235h651 q1 -25 1 -49q0 -88 -17 -167q-22 -99 -64.5 -171.5t-103.5 -130.5t-130 -95t-146.5 -61.5t-149.5 -35t-144 -10.5q-189 0 -338.5 56.5t-243.5 155t-143 227t-49 277.5z" />
<glyph unicode="H" horiz-adv-x="1556" d="M63 0v236h164v919h-164v236h668v-236h-141v-305h379v305h-142v236h668v-236h-164v-919h164v-236h-668v236h142v378h-379v-378h141v-236h-668z" />
<glyph unicode="I" horiz-adv-x="874" d="M45 0v236h211v919h-211v236h784v-236h-211v-919h211v-236h-784z" />
<glyph unicode="J" horiz-adv-x="831" d="M-2 -152q65 -16 104 -16q73 0 114.5 41t41.5 127v1155h-207v236h756v-236h-186v-1128q0 -220 -106.5 -337.5t-307.5 -117.5q-81 0 -209 25v251z" />
<glyph unicode="K" horiz-adv-x="1599" d="M41 0v236h188v919h-188v236h719v-236h-168v-919h168v-236h-719zM602 731l455 424h-164v236h680v-236h-174l-391 -383l456 -536h142v-236h-748v236h164z" />
<glyph unicode="L" horiz-adv-x="1323" d="M57 0v236h199v919h-199v236h764v-236h-203v-919h410v430h272v-666h-1243z" />
<glyph unicode="M" horiz-adv-x="2134" d="M57 0v236h181v919h-181v236h697l305 -816l317 816h705v-236h-180v-919h182v-236h-717v236h182v919h-32l-435 -1155h-151l-434 1155h-33v-919h182v-236h-588z" />
<glyph unicode="N" horiz-adv-x="1622" d="M43 0v236h186v919h-186v236h582l510 -869h4v633h-181v236h625v-236h-197v-1155h-311l-594 1022h-4v-786h174v-236h-608z" />
<glyph unicode="O" horiz-adv-x="1748" d="M102 696q0 141 49.5 268.5t143.5 228.5t243.5 160.5t335.5 59.5q151 0 279 -39t218 -107t153.5 -159.5t94 -195.5t30.5 -216q0 -109 -29.5 -211t-92.5 -194t-152.5 -160.5t-218.5 -108.5t-282 -40q-152 0 -280 39.5t-217.5 108t-152.5 160t-92.5 194t-29.5 212.5z M492 690q0 -201 106 -327.5t276 -126.5q73 0 140.5 28t123.5 82.5t89 145.5t33 206q0 210 -109.5 335.5t-276.5 125.5q-56 0 -109.5 -16t-103.5 -52.5t-87 -90t-59.5 -133.5t-22.5 -177z" />
<glyph unicode="P" horiz-adv-x="1366" d="M63 0v236h175v919h-175v236h791q213 0 343 -127t130 -316q0 -92 -30 -170.5t-89.5 -140t-157.5 -96.5t-225 -35h-225v-270h193v-236h-730zM600 741h100q124 0 183 51t59 154q0 95 -57 152t-146 57h-139v-414z" />
<glyph unicode="Q" horiz-adv-x="1748" d="M102 694q0 103 26.5 202.5t86.5 194t147.5 165.5t219.5 114t292 43q189 0 340.5 -61t244.5 -163.5t141.5 -229t48.5 -265.5q0 -152 -54 -281.5t-147.5 -219t-218.5 -143t-266 -62.5v-4q34 -12 70.5 -26.5t62.5 -26t55 -23.5t54 -19t53.5 -11.5t59.5 -3.5t66 7l-86 -229 q-16 -2 -33 -2q-55 0 -119 20q-83 25 -150 61.5t-147 67.5t-138 31q-106 0 -203 -84l-90 135q42 50 98 77.5t137 39.5v4q-252 60 -401.5 247t-149.5 445zM492 690q0 -201 106 -327.5t276 -126.5q73 0 140.5 28t123.5 82.5t89 145.5t33 206q0 210 -109.5 335.5t-276.5 125.5 q-56 0 -109.5 -16t-103.5 -52.5t-87 -90t-59.5 -133.5t-22.5 -177z" />
<glyph unicode="R" horiz-adv-x="1492" d="M47 0v236h191v919h-191v236h866q195 0 306.5 -112t111.5 -278q0 -237 -239 -346l225 -419h180v-236h-424l-313 610h-160v-374h174v-236h-727zM600 834h145q111 0 160 48.5t49 114.5q0 24 -8 49t-26 51t-53 42t-83 16h-184v-321z" />
<glyph unicode="S" horiz-adv-x="1087" d="M76 1026q0 97 34 172.5t89.5 119t119.5 65.5t132 22q169 0 254 -129h4v115h233v-422h-233q-13 95 -67 150t-134 55q-60 0 -98.5 -32t-38.5 -81q0 -45 35.5 -81.5t92 -63.5t125 -56t136.5 -68t124.5 -88.5t92 -129t35.5 -179.5q0 -95 -28.5 -170t-71 -119.5t-99 -73.5 t-106.5 -39.5t-99 -10.5q-187 0 -278 135h-4v-117h-236v473h236v-10q0 -103 59 -171q62 -70 154 -71q63 0 108 43.5t45 106.5q0 51 -34 92.5t-88.5 72.5t-120 61.5t-131 68t-120 83.5t-88.5 117t-34 160z" />
<glyph unicode="T" horiz-adv-x="1386" d="M61 831v560h1264v-560h-242v324h-209v-919h209v-236h-780v236h209v919h-209v-324h-242z" />
<glyph unicode="U" horiz-adv-x="1386" d="M29 1155v236h647v-236h-121v-706q0 -111 40.5 -170.5t139.5 -59.5q193 0 193 217v719h-115v236h537v-236h-174v-778q0 -78 -21.5 -141.5t-59.5 -105t-84.5 -71.5t-103 -45.5t-107.5 -22.5t-104 -7q-108 0 -194.5 22.5t-158 71.5t-111 138t-39.5 212v727h-164z" />
<glyph unicode="V" horiz-adv-x="1429" d="M0 1155v236h688v-236h-160l232 -696h4l233 696h-153v236h586v-236h-164l-404 -1165h-280l-418 1165h-164z" />
<glyph unicode="W" horiz-adv-x="2027" d="M-2 1155v236h625v-236h-142l224 -668h4l211 668h-127v236h499v-236h-129l226 -668h4l219 668h-144v236h562v-236h-152l-389 -1165h-252l-221 635h-4l-209 -635h-256l-402 1165h-147z" />
<glyph unicode="X" horiz-adv-x="1515" d="M-4 0v236h201l342 479l-338 440h-191v236h715v-222h-133l207 -260l188 260h-127v222h619v-236h-195l-330 -455l357 -464h209v-236h-744v221h142l-216 289l-208 -289h141v-221h-639z" />
<glyph unicode="Y" horiz-adv-x="1429" d="M-8 1155v236h684v-236h-127l211 -340l203 340h-121v236h596v-236h-174l-363 -545v-374h197v-236h-746v236h197v374l-383 545h-174z" />
<glyph unicode="Z" horiz-adv-x="1323" d="M102 0v236l660 919h-387v-252h-236v488h1075v-209l-679 -946h456v266h236v-502h-1125z" />
<glyph unicode="[" horiz-adv-x="854" d="M225 -416v1807h566v-207h-252v-1393h252v-207h-566z" />
<glyph unicode="\" horiz-adv-x="1040" d="M8 1391h285l739 -1416h-287z" />
<glyph unicode="]" horiz-adv-x="854" d="M63 -209h252v1393h-252v207h566v-1807h-566v207z" />
<glyph unicode="^" horiz-adv-x="1193" d="M115 592l377 799h221l366 -799h-284l-197 489l-197 -489h-286z" />
<glyph unicode="_" horiz-adv-x="1024" d="M-12 -154h1048v-102h-1048v102z" />
<glyph unicode="`" horiz-adv-x="681" d="M16 1411h369l160 -317h-160z" />
<glyph unicode="a" horiz-adv-x="1193" d="M82 289q0 141 112 233t285 92q61 0 106.5 -10t112.5 -33v54q0 75 -50.5 122.5t-133.5 47.5q-53 0 -93.5 -18t-82.5 -58l-250 43q58 118 172 173.5t297 55.5q238 0 346.5 -88.5t108.5 -281.5v-398h155v-223h-469v76q-129 -90 -262 -90q-152 0 -253 86.5t-101 216.5z M379 307q0 -55 36.5 -92t90.5 -37q45 0 87.5 22.5t104.5 78.5v79q-109 70 -178 70q-61 0 -101 -34t-40 -87z" />
<glyph unicode="b" horiz-adv-x="1280" d="M29 0v223h164v944h-164v224h477v-531q66 71 129 101t147 30q186 0 302 -140.5t116 -363.5q0 -110 -27 -198t-69 -143.5t-97.5 -92.5t-110 -52t-108.5 -15q-160 0 -282 125v-111h-477zM504 479q0 -117 51 -185.5t139 -68.5t138.5 69.5t50.5 192.5q0 120 -49 185t-138 65 q-91 0 -141.5 -68t-50.5 -190z" />
<glyph unicode="c" horiz-adv-x="1153" d="M66 485q0 215 138.5 356.5t350.5 141.5q151 0 293 -94v80h213v-394h-213q-75 162 -238 162q-104 0 -165.5 -68t-61.5 -182q0 -126 58 -198t161 -72q72 0 138.5 42.5t107.5 117.5l239 -107q-131 -293 -469 -293q-250 0 -401 139t-151 369z" />
<glyph unicode="d" horiz-adv-x="1280" d="M80 489q0 213 121 357.5t299 144.5q165 0 278 -129v305h-149v224h463v-1168h149v-223h-463v115q-70 -69 -136 -99t-144 -30q-179 0 -298.5 144t-119.5 359zM397 483q0 -117 52 -187.5t139 -70.5q80 0 137 66.5t57 197.5q0 111 -52.5 179.5t-143.5 68.5q-88 0 -138.5 -68 t-50.5 -186z" />
<glyph unicode="e" horiz-adv-x="1173" d="M76 467q0 227 147.5 375.5t374.5 148.5q109 0 204.5 -41t164 -113.5t104.5 -180.5q29 -87 29 -186q0 -25 -2 -50h-709q1 -44 14 -85t39.5 -77.5t74 -58t110.5 -21.5q61 0 109 24t116 89l246 -76q-153 -238 -475 -238q-252 0 -399.5 132t-147.5 358zM389 592h404 q-12 92 -66 144t-139 52q-172 0 -199 -196z" />
<glyph unicode="f" d="M68 0v223h133v522h-133v224h133v82q0 71 21 133.5t63.5 115.5t118 84t174.5 31q219 0 321 -135l-235 -176q-19 62 -33.5 83t-44.5 21q-72 0 -72 -135v-104h150v-224h-150v-522h150v-223h-596z" />
<glyph unicode="g" horiz-adv-x="1280" d="M74 485q0 214 120 356t300 142q168 0 274 -133h4v119h477v-224h-164v-722q0 -80 -15.5 -148t-53 -129t-95 -104t-146 -68t-202.5 -25q-290 0 -430 107l150 203q120 -70 239 -70q67 0 115.5 19.5t74.5 54.5t38 75.5t12 88.5v94q-82 -69 -151 -100t-144 -31 q-172 0 -287.5 141.5t-115.5 353.5zM391 483q0 -113 51.5 -180t137.5 -67q85 0 138.5 67.5t53.5 175.5q0 116 -51.5 183t-140.5 67q-87 0 -138 -66.5t-51 -179.5z" />
<glyph unicode="h" horiz-adv-x="1280" d="M55 0v223h150v944h-150v224h463v-500q87 58 145 79t130 21q144 0 222.5 -86.5t78.5 -216.5v-465h141v-223h-455v621q0 63 -22.5 89.5t-75.5 26.5q-68 0 -164 -59v-455h141v-223h-604z" />
<glyph unicode="i" d="M88 0v223h141v522h-141v224h455v-746h141v-223h-596zM221 1245q0 71 48.5 119.5t119.5 48.5t120.5 -49t49.5 -119q0 -71 -49.5 -120.5t-120.5 -49.5q-70 0 -119 49.5t-49 120.5z" />
<glyph unicode="j" d="M-14 -174h73q89 0 128.5 30.5t39.5 116.5v772h-149v224h463v-1000q0 -215 -103 -306t-340 -91q-38 0 -112 4v250zM207 1245q0 71 48.5 119.5t119.5 48.5t120.5 -49t49.5 -119q0 -71 -49.5 -120.5t-120.5 -49.5q-70 0 -119 49.5t-49 120.5z" />
<glyph unicode="k" horiz-adv-x="1323" d="M72 0v215h149v952h-149v224h463v-877h4l329 256v4h-213v195h602v-195h-106l-283 -244l258 -315h131v-215h-294l-424 512h-4v-297h120v-215h-583z" />
<glyph unicode="l" d="M74 0v223h149v944h-149v224h463v-1168h139v-223h-602z" />
<glyph unicode="m" horiz-adv-x="2027" d="M39 0v223h180v522h-180v224h493v-80q161 94 308 94q97 0 174 -34.5t123 -98.5q105 71 193.5 102t189.5 31q70 0 126.5 -16t104 -51t74 -99t26.5 -153v-441h193v-223h-506v563q0 80 -30.5 118t-96.5 38q-96 0 -219 -66v-430h174v-223h-487v563q0 83 -29.5 119.5 t-95.5 36.5q-93 0 -222 -66v-430h175v-223h-668z" />
<glyph unicode="n" horiz-adv-x="1280" d="M74 0v223h149v522h-149v224h463v-90q75 56 140 80t138 24q41 0 80 -9t79 -32.5t69.5 -59.5t48 -95t18.5 -134v-430h141v-223h-454v614q0 109 -90 109q-81 0 -170 -64v-436h129v-223h-592z" />
<glyph unicode="o" horiz-adv-x="1173" d="M78 485q0 123 42 221.5t114 159.5t162 93t190 32q143 0 257.5 -57.5t183.5 -174t69 -274.5q0 -228 -141 -368t-369 -140q-222 0 -365 136.5t-143 371.5zM395 479q0 -123 51 -192.5t140 -69.5q92 0 142 70t50 198q0 127 -50 197t-142 70t-141.5 -71t-49.5 -202z" />
<glyph unicode="p" horiz-adv-x="1280" d="M35 -211h164v956h-164v224h477v-123q64 72 131.5 104.5t149.5 32.5q175 0 293 -144.5t118 -359.5q0 -221 -116.5 -361.5t-299.5 -140.5q-80 0 -145 28.5t-131 92.5v-309h184v-223h-661v223zM510 475q0 -119 51 -188.5t139 -69.5t137.5 69.5t49.5 192.5q0 117 -51 183.5 t-140 66.5t-137.5 -67t-48.5 -187z" />
<glyph unicode="q" horiz-adv-x="1280" d="M76 479q0 215 118 359.5t293 144.5q82 0 149.5 -32.5t131.5 -104.5v123h477v-224h-164v-956h164v-223h-661v223h184v309q-66 -64 -131 -92.5t-145 -28.5q-183 0 -299.5 140.5t-116.5 361.5zM393 479q0 -123 49.5 -192.5t137.5 -69.5q89 0 139.5 70.5t50.5 195.5 q0 114 -50 180t-136 66q-89 0 -140 -66.5t-51 -183.5z" />
<glyph unicode="r" horiz-adv-x="917" d="M55 0v223h181v522h-164v224h444v-246h4q43 126 130.5 193t207.5 67h45v-293h-37q-317 0 -317 -364v-103h188v-223h-682z" />
<glyph unicode="s" horiz-adv-x="1044" d="M82 698q0 125 100.5 205t257.5 80q132 0 244 -47v33h221v-281h-221q-26 100 -211 100q-61 0 -97 -20t-36 -53q0 -27 35 -43.5t90.5 -26.5t123 -20.5t134.5 -31.5t122.5 -53t90.5 -91.5t35 -141.5q0 -146 -99.5 -235.5t-281.5 -89.5q-99 0 -154.5 16.5t-91.5 50.5v-49 h-225v334h225q2 -34 15.5 -58.5t46.5 -50.5q55 -41 153 -41q71 0 114.5 26t43.5 69q0 39 -38.5 59.5t-103.5 31t-136.5 22t-151 44t-133.5 86.5q-72 72 -72 176z" />
<glyph unicode="t" horiz-adv-x="704" d="M39 745v224h123v151l313 221v-372h174v-224h-174v-419q0 -63 15 -82t65 -19q36 0 94 19v-209q-116 -49 -231 -49q-49 0 -92.5 12.5t-81 38t-60 72t-22.5 108.5v528h-123z" />
<glyph unicode="u" horiz-adv-x="1280" d="M29 745v224h454v-604q0 -71 20.5 -98t74.5 -27q71 0 165 69v436h-129v224h443v-746h149v-223h-463v82q-137 -96 -276 -96q-138 0 -217.5 80.5t-79.5 220.5v458h-141z" />
<glyph unicode="v" horiz-adv-x="1173" d="M-8 745v224h569v-224h-100l151 -440l181 440h-101v224h490v-224h-142l-315 -759h-264l-328 759h-141z" />
<glyph unicode="w" horiz-adv-x="1665" d="M0 745v224h526v-224h-104l117 -360h4l194 584h258l197 -584h4l111 360h-113v224h469v-224h-121l-250 -759h-266l-188 569h-4l-187 -569h-270l-254 759h-123z" />
<glyph unicode="x" horiz-adv-x="1153" d="M45 0v223h141l209 250l-209 272h-141v224h373l174 -267l190 267h293v-224h-131l-194 -233l227 -289h131v-223h-373l-188 272l-201 -272h-301z" />
<glyph unicode="y" horiz-adv-x="1216" d="M8 745v224h561v-224h-94l162 -434l172 434h-104v224h491v-224h-141l-465 -1179h-338v223h184l64 172l-350 784h-142z" />
<glyph unicode="z" horiz-adv-x="1087" d="M72 0v197l569 571h-311v-145h-211v346h891v-201l-568 -571h365v163h203v-360h-938z" />
<glyph unicode="{" horiz-adv-x="788" d="M59 362v230q122 0 171 72t49 219v125q0 72 6.5 122t29 103t62 85t110 52.5t168.5 20.5h88v-236h-57t-44.5 -4t-35.5 -5t-26 -12.5t-19.5 -16.5t-12 -27t-8 -34.5t-3.5 -47.5t-2 -57v-73v-2v-2q0 -166 -40 -249t-143 -148q103 -65 143 -148t40 -249q0 -165 10 -206 q13 -50 56 -64q34 -11 142 -11v-235h-88q-98 0 -168.5 20.5t-110 52.5t-62 85t-29 103t-6.5 122v125q0 147 -49 218.5t-171 71.5z" />
<glyph unicode="|" horiz-adv-x="1251" d="M494 -440v1831h264v-1831h-264z" />
<glyph unicode="}" horiz-adv-x="788" d="M45 -201q60 0 89 0.5t57.5 14t37 23.5t17 52t8.5 75v116q0 166 39.5 249t142.5 148q-103 65 -142.5 148t-39.5 249v116t-8.5 75t-17 52t-37 23.5t-57.5 14t-89 0.5v236h88q82 0 145 -13t103.5 -40t66.5 -59t39.5 -78.5t18 -90t4.5 -102.5v-125q0 -148 48.5 -219.5 t170.5 -71.5v-230q-122 0 -170.5 -71.5t-48.5 -218.5v-125q0 -59 -4.5 -102.5t-18 -90t-39.5 -78.5t-66.5 -59t-103.5 -40t-145 -13h-88v235z" />
<glyph unicode="~" horiz-adv-x="1193" d="M66 520v258q66 71 138.5 104t162.5 33q70 0 143 -21t123.5 -45.5t111.5 -45.5t109 -21q144 0 274 142v-271q-58 -56 -137.5 -94.5t-154.5 -38.5q-61 0 -130 22t-121.5 49t-120 49t-124.5 22q-138 0 -274 -142z" />
<glyph unicode="&#xa1;" d="M195 633v336h335v-336h-335zM207 -41l82 524h147l82 -524v-381h-311v381z" />
<glyph unicode="&#xa2;" horiz-adv-x="1153" d="M63 481q0 88 25 166.5t68.5 136.5t102.5 103.5t127.5 67t143 27.5t148.5 -15l164 438h129l-174 -487q48 -27 86 -56v107h182v-400h-211q-65 111 -137 142l-172 -478q41 -16 82 -17.5t82.5 13t79.5 53t65 97.5l238 -107q-63 -164 -239 -245.5t-392 -30.5l-150 -447h-133 l168 486q-138 66 -210.5 180t-72.5 266zM381 481q0 -105 61 -172l150 424q-97 -6 -154 -74.5t-57 -177.5z" />
<glyph unicode="&#xa3;" horiz-adv-x="1173" d="M115 217q0 100 63 166t158 66q64 0 153 -41q0 73 -38 180h-304v205h201q-98 186 -98 301q0 142 118 231.5t306 89.5q175 0 275.5 -91t113.5 -263l-240 -31q-6 101 -42.5 146t-112.5 45q-60 0 -100 -32t-40 -81q0 -41 19.5 -88t55 -114t54.5 -113h258v-205h-213 q16 -158 -20 -275q84 -37 149 -37q131 0 146 173l143 -29q6 -214 -71 -326t-215 -112q-67 0 -136 28.5t-127 81.5q-101 -110 -223 -110q-101 0 -167 66t-66 169zM246 219q0 -38 26.5 -65t63.5 -27q35 0 67.5 24t47.5 62q-69 86 -129 86q-32 0 -54 -23t-22 -57z" />
<glyph unicode="&#xa4;" horiz-adv-x="1366" d="M137 326l137 137q-65 118 -65 244q0 122 65 229l-137 139l170 172l137 -141q113 68 236 68q120 0 242 -68l137 141l170 -172l-137 -139q63 -118 63 -240q0 -127 -63 -233l137 -137l-170 -170l-137 135q-124 -68 -246 -68t-232 68l-137 -135zM446 698q0 -97 69.5 -166 t166.5 -69q98 0 167 68.5t69 166.5q0 97 -69 166.5t-167 69.5q-97 0 -166.5 -69.5t-69.5 -166.5z" />
<glyph unicode="&#xa5;" horiz-adv-x="1429" d="M-10 1155v236h686v-236h-129l213 -340l205 340h-123v236h598v-236h-174l-125 -188h282v-140h-376l-146 -219h522v-139h-522v-233h197v-236h-746v236h197v233h-541v139h541l-156 219h-385v140h291l-135 188h-174z" />
<glyph unicode="&#xa6;" horiz-adv-x="1251" d="M494 340h264v-780h-264v780zM494 610v781h264v-781h-264z" />
<glyph unicode="&#xa7;" horiz-adv-x="1067" d="M49 465q0 95 53.5 173.5t153.5 129.5q-162 116 -162 285q0 161 117.5 258.5t312.5 97.5q202 0 317 -101.5t117 -273.5h-264q-6 84 -49.5 124t-128.5 40q-63 0 -103 -29.5t-40 -76.5q0 -52 36 -90t99 -66t132 -55t151.5 -74t142.5 -107q84 -84 84 -194q0 -92 -48.5 -166 t-154.5 -145q74 -46 115 -118.5t41 -158.5q0 -158 -119 -258t-307 -100q-189 0 -308.5 104.5t-125.5 276.5h264q3 -79 50.5 -125.5t125.5 -46.5q62 0 101.5 34t39.5 88q0 40 -35.5 75t-92 62.5t-125 56t-137.5 63.5t-125.5 76.5t-92 103.5t-35.5 137zM303 543 q0 -53 39 -92.5t135 -81.5l195 -88q94 73 94 157q0 88 -158 156l-213 94q-42 -28 -67 -67.5t-25 -77.5z" />
<glyph unicode="&#xa8;" horiz-adv-x="681" d="M-31 1249q0 60 42 102t102 42t102.5 -42t42.5 -102t-42.5 -102.5t-102.5 -42.5t-102 42.5t-42 102.5zM424 1249q0 60 41.5 102t101.5 42t103 -42t43 -102t-43 -102.5t-103 -42.5t-101.5 42.5t-41.5 102.5z" />
<glyph unicode="&#xa9;" horiz-adv-x="1515" d="M-8 729q0 209 102.5 385t278.5 278.5t385 102.5t385 -102.5t278.5 -278.5t102.5 -385t-102.5 -385t-278.5 -278.5t-385 -102.5t-385 102.5t-278.5 278.5t-102.5 385zM143 731q0 -125 48.5 -239t131 -196.5t196.5 -131.5t239 -49q167 0 308.5 82.5t223.5 224.5t82 309 t-82 308t-223.5 222.5t-308.5 81.5t-308.5 -81.5t-224 -222.5t-82.5 -308zM381 725q0 198 104.5 314t284.5 116q247 0 334 -244l-162 -39q-28 72 -71 106t-107 34q-98 0 -152.5 -74.5t-54.5 -208.5q0 -135 52.5 -210t146.5 -75q137 0 186 172l162 -55q-38 -125 -125 -191.5 t-211 -66.5q-177 0 -282 115t-105 307z" />
<glyph unicode="&#xaa;" horiz-adv-x="811" d="M86 989q0 86 72 141.5t184 55.5q68 0 145 -31v37q0 43 -33.5 71.5t-86.5 28.5q-67 0 -115 -45l-162 27q38 73 111.5 107t195.5 34q157 0 224 -60.5t67 -158.5v-246h100v-133h-301v45q-85 -53 -172 -53q-98 0 -163.5 51t-65.5 129zM281 1001q0 -34 23 -55.5t58 -21.5 q52 0 125 59v47q-70 43 -116 43q-39 0 -64.5 -20.5t-25.5 -51.5z" />
<glyph unicode="&#xab;" horiz-adv-x="1110" d="M12 483l232 486h295l-226 -486l226 -483h-295zM573 483l232 486h295l-226 -486l226 -483h-295z" />
<glyph unicode="&#xac;" horiz-adv-x="1368" d="M119 805v260h1128v-748h-260v488h-868z" />
<glyph unicode="&#xad;" horiz-adv-x="704" d="M72 348v270h559v-270h-559z" />
<glyph unicode="&#xae;" horiz-adv-x="1515" d="M-8 729q0 209 102.5 385t278.5 278.5t385 102.5t385 -102.5t278.5 -278.5t102.5 -385t-102.5 -385t-278.5 -278.5t-385 -102.5t-385 102.5t-278.5 278.5t-102.5 385zM143 731q0 -125 48.5 -239t131 -196.5t196.5 -131.5t239 -49q167 0 308.5 82.5t223.5 224.5t82 309 t-82 308t-223.5 222.5t-308.5 81.5t-308.5 -81.5t-224 -222.5t-82.5 -308zM412 319v814h399q131 0 195.5 -66t64.5 -162q0 -94 -59 -154.5t-162 -72.5v-4q18 -6 32.5 -14t26 -16t26.5 -26.5t25 -31.5t30 -46t33.5 -56t44 -75t52.5 -90h-205q-60 123 -96.5 185.5t-79.5 105.5 q-29 29 -52.5 36t-78.5 7h-30v-334h-166zM578 782h145q174 0 174 113q0 111 -170 111h-149v-224z" />
<glyph unicode="&#xaf;" horiz-adv-x="681" d="M-123 1110v209h930v-209h-930z" />
<glyph unicode="&#xb0;" horiz-adv-x="811" d="M59 1069q0 143 100.5 243.5t243.5 100.5t245 -101t102 -243t-102 -244t-245 -102q-142 0 -243 101.5t-101 244.5zM190 1069q0 -89 62 -152t151 -63t152 63t63 152t-63 151t-152 62t-151 -62t-62 -151z" />
<glyph unicode="&#xb1;" horiz-adv-x="1368" d="M119 -68v261h1128v-261h-1128zM119 741v260h434v435h260v-435h434v-260h-434v-434h-260v434h-434z" />
<glyph unicode="&#xb2;" horiz-adv-x="681" d="M53 680v37q0 63 18.5 116.5t48 90.5t65 69t71 58.5t65 51.5t48 55t18.5 63q0 31 -18 50t-47 19q-43 0 -63 -35t-23 -114l-183 14q-3 128 71 194t208 66q120 0 194 -56t74 -147q0 -59 -33 -104.5t-82 -75.5t-100 -59t-93.5 -71t-55.5 -95h213v96h155v-223h-551z" />
<glyph unicode="&#xb3;" horiz-adv-x="681" d="M45 909l182 13q3 -125 99 -125q41 0 67.5 28t26.5 72q0 47 -28 72.5t-79 25.5h-47v131q135 0 135 88q0 34 -20.5 54t-54.5 20q-38 0 -58 -23.5t-18 -66.5h-178q1 46 18.5 85t36.5 58q42 39 90 56.5t123 17.5q120 0 191 -52t71 -140q0 -107 -113 -162q144 -47 144 -170 q0 -98 -81 -158.5t-214 -60.5q-269 0 -293 237z" />
<glyph unicode="&#xb4;" horiz-adv-x="681" d="M137 1094l160 317h369l-369 -317h-160z" />
<glyph unicode="&#xb5;" horiz-adv-x="1259" d="M150 -434v1403h278v-412q0 -85 8.5 -146t30 -111t61.5 -74.5t99 -24.5q89 0 146.5 76t57.5 221v471h285v-969h-262v129h-4q-31 -74 -89.5 -113t-121.5 -39q-72 0 -121.5 35t-85.5 119h-4v-565h-278z" />
<glyph unicode="&#xb6;" horiz-adv-x="1130" d="M0 973q0 190 114.5 304t323.5 114h692v-261h-112v-1564h-238v1564h-149v-1564h-238v1003q-186 13 -289.5 120t-103.5 284z" />
<glyph unicode="&#xb7;" horiz-adv-x="747" d="M205 645v336h336v-336h-336z" />
<glyph unicode="&#xb8;" horiz-adv-x="681" d="M20 -309q44 0 75 2.5t65.5 9.5t52.5 24.5t18 43.5q0 62 -120 71l36 183h175v-52q81 -14 129.5 -61t48.5 -115q0 -56 -22 -96t-63 -63.5t-99.5 -36.5t-133 -15t-162.5 2v103z" />
<glyph unicode="&#xb9;" horiz-adv-x="681" d="M131 680v127h117v469h-117v127h322v-596h106v-127h-428z" />
<glyph unicode="&#xba;" horiz-adv-x="768" d="M53 1110q0 137 91.5 221t240.5 84t239.5 -84t90.5 -221t-90.5 -221t-239.5 -84t-240.5 84t-91.5 221zM260 1108q0 -75 33 -117.5t90 -42.5q60 0 92.5 42.5t32.5 119.5q0 75 -32.5 117.5t-90.5 42.5q-59 0 -92 -43t-33 -119z" />
<glyph unicode="&#xbb;" horiz-adv-x="1110" d="M10 0l226 483l-226 486h295l232 -486l-232 -483h-295zM571 0l226 483l-226 486h295l232 -486l-232 -483h-295z" />
<glyph unicode="&#xbc;" horiz-adv-x="1898" d="M190 680v127h117v469h-117v127h322v-596h106v-127h-428zM356 0l1008 1391h178l-1007 -1391h-179zM1151 293l356 442h183v-430h73v-110h-73v-78h73v-117h-358v117h90v78h-297q-25 59 -47 98zM1323 305h172v211h-4z" />
<glyph unicode="&#xbd;" horiz-adv-x="1898" d="M190 680v127h117v469h-117v127h322v-596h106v-127h-428zM356 0l1008 1391h178l-1007 -1391h-179zM1204 0v37q0 63 18.5 116.5t48 90.5t65 69t71 58.5t65 51.5t48 55t18.5 63q0 31 -18 50t-47 19q-43 0 -63.5 -35t-23.5 -114l-182 14q-3 128 71 194t208 66q120 0 194 -56 t74 -147q0 -43 -17.5 -79t-46.5 -61t-64.5 -47.5t-73 -44.5t-70.5 -45.5t-58.5 -56t-34.5 -71.5h213v96h156v-223h-551z" />
<glyph unicode="&#xbe;" horiz-adv-x="1898" d="M117 909l182 13q3 -125 98 -125q41 0 68 28t27 72q0 47 -28 72.5t-79 25.5h-47v131q135 0 135 88q0 34 -21 54t-55 20q-38 0 -57.5 -23.5t-17.5 -66.5h-179q1 41 17.5 83t34.5 58q80 76 217 76q120 0 191 -52t71 -140q0 -107 -113 -162q144 -47 144 -170 q0 -98 -81 -158.5t-214 -60.5q-269 0 -293 237zM356 0l1008 1391h178l-1007 -1391h-179zM1151 293l356 442h183v-430h73v-110h-73v-78h73v-117h-358v117h90v78h-297q-25 59 -47 98zM1323 305h172v211h-4z" />
<glyph unicode="&#xbf;" horiz-adv-x="1153" d="M109 -16q0 174 117 282t315 99l32 145h144l28 -354l-12 -6q-57 17 -112 12t-98.5 -24.5t-70 -62t-26.5 -100.5q0 -33 10.5 -64t32 -58.5t59.5 -44.5t88 -17q87 0 138.5 54.5t33.5 152.5h310q0 -202 -136 -312t-366 -110q-224 0 -355.5 110t-131.5 298zM479 655v336h336 v-336h-336z" />
<glyph unicode="&#xc0;" horiz-adv-x="1429" d="M-4 0v236h174l272 919h-186v236h907v-236h-186l291 -919h164v-236h-676v236h174l-66 237h-360l-76 -237h186v-236h-618zM391 1833h369l160 -317h-160zM565 678h242l-113 420h-4z" />
<glyph unicode="&#xc1;" horiz-adv-x="1429" d="M-4 0v236h174l272 919h-186v236h907v-236h-186l291 -919h164v-236h-676v236h174l-66 237h-360l-76 -237h186v-236h-618zM512 1516l160 317h368l-368 -317h-160zM565 678h242l-113 420h-4z" />
<glyph unicode="&#xc2;" horiz-adv-x="1429" d="M-4 0v236h174l272 919h-186v236h907v-236h-186l291 -919h164v-236h-676v236h174l-66 237h-360l-76 -237h186v-236h-618zM324 1487l241 368h301l244 -368h-174l-223 219l-209 -219h-180zM565 678h242l-113 420h-4z" />
<glyph unicode="&#xc3;" horiz-adv-x="1429" d="M-4 0v236h174l272 919h-186v236h907v-236h-186l291 -919h164v-236h-676v236h174l-66 237h-360l-76 -237h186v-236h-618zM326 1509q0 145 63 230q62 90 168 90q51 0 113.5 -29.5t118 -58.5t88.5 -29q35 0 60 32t28 81h143q4 -140 -64.5 -231t-169.5 -91q-54 0 -169 57.5 t-150 57.5q-37 0 -58 -28.5t-22 -80.5h-149zM565 678h242l-113 420h-4z" />
<glyph unicode="&#xc4;" horiz-adv-x="1429" d="M-4 0v236h174l272 919h-186v236h907v-236h-186l291 -919h164v-236h-676v236h174l-66 237h-360l-76 -237h186v-236h-618zM344 1671q0 60 41.5 102t101.5 42t103 -42t43 -102t-43 -102.5t-103 -42.5t-101.5 42.5t-41.5 102.5zM565 678h242l-113 420h-4zM799 1671 q0 60 41.5 102t101.5 42t102.5 -42t42.5 -102t-42.5 -102.5t-102.5 -42.5t-101.5 42.5t-41.5 102.5z" />
<glyph unicode="&#xc5;" horiz-adv-x="1429" d="M-4 0v236h174l272 919h-186v236h907v-236h-186l291 -919h164v-236h-676v236h174l-66 237h-360l-76 -237h186v-236h-618zM504 1690q0 88 61.5 149.5t149.5 61.5t150.5 -61.5t62.5 -149.5t-62.5 -150.5t-150.5 -62.5t-149.5 62.5t-61.5 150.5zM565 678h242l-113 420h-4z M606 1690q0 -46 31.5 -78.5t77.5 -32.5t78 32.5t32 78.5t-32 77t-78 31t-77.5 -31t-31.5 -77z" />
<glyph unicode="&#xc6;" horiz-adv-x="2027" d="M-4 0v236h145l398 919h-207v236h1622v-441h-266v205h-416v-317h336v-236h-336v-366h416v210h266v-446h-1202v236h157v366h-334l-163 -366h163v-236h-579zM662 807h247v371h-90z" />
<glyph unicode="&#xc7;" horiz-adv-x="1599" d="M76 696q0 318 203 517.5t528 199.5q251 0 418 -131v109h235v-490h-235q-21 52 -50.5 101t-56.5 71q-72 56 -120.5 74t-118.5 18q-187 0 -300.5 -129.5t-113.5 -343.5q0 -202 109 -329t282 -127q145 0 247 95t140 267l275 -131q-140 -485 -711 -485l-4 -23 q86 -7 137 -56.5t51 -119.5q0 -56 -21.5 -96t-62.5 -63.5t-100 -36.5t-133 -15t-162 2v102q44 0 75 2.5t65.5 9.5t52.5 24.5t18 43.5q0 63 -121 72l35 170q-126 22 -225.5 77t-161 125t-102 157.5t-56.5 170t-16 168.5z" />
<glyph unicode="&#xc8;" horiz-adv-x="1366" d="M70 0v236h163v919h-163v236h1222v-441h-264v205h-432v-319h348v-236h-348v-364h432v206h264v-442h-1222zM358 1833h369l160 -317h-160z" />
<glyph unicode="&#xc9;" horiz-adv-x="1366" d="M70 0v236h163v919h-163v236h1222v-441h-264v205h-432v-319h348v-236h-348v-364h432v206h264v-442h-1222zM479 1516l160 317h369l-369 -317h-160z" />
<glyph unicode="&#xca;" horiz-adv-x="1366" d="M70 0v236h163v919h-163v236h1222v-441h-264v205h-432v-319h348v-236h-348v-364h432v206h264v-442h-1222zM291 1487l241 368h302l243 -368h-174l-223 219l-209 -219h-180z" />
<glyph unicode="&#xcb;" horiz-adv-x="1366" d="M70 0v236h163v919h-163v236h1222v-441h-264v205h-432v-319h348v-236h-348v-364h432v206h264v-442h-1222zM311 1671q0 60 42 102t102 42t102.5 -42t42.5 -102t-42.5 -102.5t-102.5 -42.5t-102 42.5t-42 102.5zM766 1671q0 60 41.5 102t101.5 42t103 -42t43 -102 t-43 -102.5t-103 -42.5t-101.5 42.5t-41.5 102.5z" />
<glyph unicode="&#xcc;" horiz-adv-x="874" d="M45 0v236h211v919h-211v236h784v-236h-211v-919h211v-236h-784zM113 1833h368l160 -317h-160z" />
<glyph unicode="&#xcd;" horiz-adv-x="874" d="M45 0v236h211v919h-211v236h784v-236h-211v-919h211v-236h-784zM233 1516l160 317h369l-369 -317h-160z" />
<glyph unicode="&#xce;" horiz-adv-x="874" d="M45 0v236h211v919h-211v236h784v-236h-211v-919h211v-236h-784zM45 1487l242 368h301l243 -368h-174l-223 219l-209 -219h-180z" />
<glyph unicode="&#xcf;" horiz-adv-x="874" d="M45 0v236h211v919h-211v236h784v-236h-211v-919h211v-236h-784zM66 1671q0 60 41.5 102t101.5 42t102.5 -42t42.5 -102t-42.5 -102.5t-102.5 -42.5t-101.5 42.5t-41.5 102.5zM520 1671q0 60 42 102t102 42t102.5 -42t42.5 -102t-42.5 -102.5t-102.5 -42.5t-102 42.5 t-42 102.5z" />
<glyph unicode="&#xd0;" horiz-adv-x="1642" d="M68 0v236h211v366h-211v186h211v367h-211v236h727q195 0 329.5 -43t237.5 -146q199 -199 199 -510q0 -109 -26.5 -210t-81 -189t-132.5 -153t-187.5 -102.5t-238.5 -37.5h-827zM641 236h137q202 0 304 120.5t102 333.5q0 225 -108 345t-310 120h-125v-367h256v-186h-256 v-366z" />
<glyph unicode="&#xd1;" horiz-adv-x="1622" d="M43 0v236h186v919h-186v236h582l510 -869h4v633h-181v236h625v-236h-197v-1155h-311l-594 1022h-4v-786h174v-236h-608zM422 1509q0 145 63 230q62 90 168 90q51 0 113.5 -29.5t118 -58.5t88.5 -29q35 0 60 32t28 81h143q4 -140 -64.5 -231t-168.5 -91q-54 0 -169.5 57.5 t-150.5 57.5q-37 0 -58 -28.5t-22 -80.5h-149z" />
<glyph unicode="&#xd2;" horiz-adv-x="1748" d="M102 696q0 141 49.5 268.5t143.5 228.5t243.5 160.5t335.5 59.5q151 0 279 -39t218 -107t153.5 -159.5t94 -195.5t30.5 -216q0 -109 -29.5 -211t-92.5 -194t-152.5 -160.5t-218.5 -108.5t-282 -40q-152 0 -280 39.5t-217.5 108t-152.5 160t-92.5 194t-29.5 212.5z M492 690q0 -201 106 -327.5t276 -126.5q73 0 140.5 28t123.5 82.5t89 145.5t33 206q0 210 -109.5 335.5t-276.5 125.5q-56 0 -109.5 -16t-103.5 -52.5t-87 -90t-59.5 -133.5t-22.5 -177zM551 1833h369l159 -317h-159z" />
<glyph unicode="&#xd3;" horiz-adv-x="1748" d="M102 696q0 141 49.5 268.5t143.5 228.5t243.5 160.5t335.5 59.5q151 0 279 -39t218 -107t153.5 -159.5t94 -195.5t30.5 -216q0 -109 -29.5 -211t-92.5 -194t-152.5 -160.5t-218.5 -108.5t-282 -40q-152 0 -280 39.5t-217.5 108t-152.5 160t-92.5 194t-29.5 212.5z M492 690q0 -201 106 -327.5t276 -126.5q73 0 140.5 28t123.5 82.5t89 145.5t33 206q0 210 -109.5 335.5t-276.5 125.5q-56 0 -109.5 -16t-103.5 -52.5t-87 -90t-59.5 -133.5t-22.5 -177zM672 1516l159 317h369l-369 -317h-159z" />
<glyph unicode="&#xd4;" horiz-adv-x="1748" d="M102 696q0 141 49.5 268.5t143.5 228.5t243.5 160.5t335.5 59.5q151 0 279 -39t218 -107t153.5 -159.5t94 -195.5t30.5 -216q0 -109 -29.5 -211t-92.5 -194t-152.5 -160.5t-218.5 -108.5t-282 -40q-152 0 -280 39.5t-217.5 108t-152.5 160t-92.5 194t-29.5 212.5z M483 1487l242 368h301l244 -368h-174l-224 219l-208 -219h-181zM492 690q0 -201 106 -327.5t276 -126.5q73 0 140.5 28t123.5 82.5t89 145.5t33 206q0 210 -109.5 335.5t-276.5 125.5q-56 0 -109.5 -16t-103.5 -52.5t-87 -90t-59.5 -133.5t-22.5 -177z" />
<glyph unicode="&#xd5;" horiz-adv-x="1748" d="M102 696q0 141 49.5 268.5t143.5 228.5t243.5 160.5t335.5 59.5q151 0 279 -39t218 -107t153.5 -159.5t94 -195.5t30.5 -216q0 -109 -29.5 -211t-92.5 -194t-152.5 -160.5t-218.5 -108.5t-282 -40q-152 0 -280 39.5t-217.5 108t-152.5 160t-92.5 194t-29.5 212.5z M485 1509q0 144 64 230q62 90 168 90q51 0 113 -29.5t117.5 -58.5t88.5 -29q35 0 60 32t28 81h144q4 -140 -64.5 -231t-169.5 -91q-54 0 -169 57.5t-150 57.5q-37 0 -58 -28.5t-22 -80.5h-150zM492 690q0 -201 106 -327.5t276 -126.5q73 0 140.5 28t123.5 82.5t89 145.5 t33 206q0 210 -109.5 335.5t-276.5 125.5q-56 0 -109.5 -16t-103.5 -52.5t-87 -90t-59.5 -133.5t-22.5 -177z" />
<glyph unicode="&#xd6;" horiz-adv-x="1748" d="M102 696q0 141 49.5 268.5t143.5 228.5t243.5 160.5t335.5 59.5q151 0 279 -39t218 -107t153.5 -159.5t94 -195.5t30.5 -216q0 -109 -29.5 -211t-92.5 -194t-152.5 -160.5t-218.5 -108.5t-282 -40q-152 0 -280 39.5t-217.5 108t-152.5 160t-92.5 194t-29.5 212.5z M492 690q0 -201 106 -327.5t276 -126.5q73 0 140.5 28t123.5 82.5t89 145.5t33 206q0 210 -109.5 335.5t-276.5 125.5q-56 0 -109.5 -16t-103.5 -52.5t-87 -90t-59.5 -133.5t-22.5 -177zM504 1671q0 60 41.5 102t101.5 42t103 -42t43 -102t-43 -102.5t-103 -42.5 t-101.5 42.5t-41.5 102.5zM958 1671q0 60 42 102t102 42t102.5 -42t42.5 -102t-42.5 -102.5t-102.5 -42.5t-102 42.5t-42 102.5z" />
<glyph unicode="&#xd7;" horiz-adv-x="1366" d="M143 1036l185 185l356 -357l356 357l185 -185l-357 -356l353 -352l-183 -183l-354 355l-354 -355l-183 183l353 352z" />
<glyph unicode="&#xd8;" horiz-adv-x="1748" d="M102 698q0 85 19.5 168.5t59 164.5t103.5 149.5t147.5 121t198 82t247.5 29.5q261 0 438 -108l117 137l116 -86l-116 -137l6 -5q211 -208 211 -516q0 -108 -29.5 -210.5t-92 -194.5t-152 -161t-218 -109.5t-280.5 -40.5q-257 0 -437 108l-137 -156l-117 66l142 174 q-109 100 -167.5 234.5t-58.5 289.5zM492 700q0 -157 61 -270l561 643q-103 86 -237 86q-172 0 -278.5 -127.5t-106.5 -331.5zM641 322q106 -86 236 -86q170 0 276.5 127t106.5 331q0 156 -58 269z" />
<glyph unicode="&#xd9;" horiz-adv-x="1386" d="M29 1155v236h647v-236h-121v-706q0 -111 40.5 -170.5t139.5 -59.5q193 0 193 217v719h-115v236h537v-236h-174v-778q0 -78 -21.5 -141.5t-59.5 -105t-84.5 -71.5t-103 -45.5t-107.5 -22.5t-104 -7q-108 0 -194.5 22.5t-158 71.5t-111 138t-39.5 212v727h-164zM369 1833 h368l160 -317h-160z" />
<glyph unicode="&#xda;" horiz-adv-x="1386" d="M29 1155v236h647v-236h-121v-706q0 -111 40.5 -170.5t139.5 -59.5q193 0 193 217v719h-115v236h537v-236h-174v-778q0 -78 -21.5 -141.5t-59.5 -105t-84.5 -71.5t-103 -45.5t-107.5 -22.5t-104 -7q-108 0 -194.5 22.5t-158 71.5t-111 138t-39.5 212v727h-164zM489 1516 l160 317h369l-369 -317h-160z" />
<glyph unicode="&#xdb;" horiz-adv-x="1386" d="M29 1155v236h647v-236h-121v-706q0 -111 40.5 -170.5t139.5 -59.5q193 0 193 217v719h-115v236h537v-236h-174v-778q0 -78 -21.5 -141.5t-59.5 -105t-84.5 -71.5t-103 -45.5t-107.5 -22.5t-104 -7q-108 0 -194.5 22.5t-158 71.5t-111 138t-39.5 212v727h-164zM301 1487 l242 368h301l243 -368h-174l-223 219l-209 -219h-180z" />
<glyph unicode="&#xdc;" horiz-adv-x="1386" d="M29 1155v236h647v-236h-121v-706q0 -111 40.5 -170.5t139.5 -59.5q193 0 193 217v719h-115v236h537v-236h-174v-778q0 -78 -21.5 -141.5t-59.5 -105t-84.5 -71.5t-103 -45.5t-107.5 -22.5t-104 -7q-108 0 -194.5 22.5t-158 71.5t-111 138t-39.5 212v727h-164zM322 1671 q0 60 41.5 102t101.5 42t102.5 -42t42.5 -102t-42.5 -102.5t-102.5 -42.5t-101.5 42.5t-41.5 102.5zM776 1671q0 60 42 102t102 42t102.5 -42t42.5 -102t-42.5 -102.5t-102.5 -42.5t-102 42.5t-42 102.5z" />
<glyph unicode="&#xdd;" horiz-adv-x="1429" d="M-8 1155v236h684v-236h-127l211 -340l203 340h-121v236h596v-236h-174l-363 -545v-374h197v-236h-746v236h197v374l-383 545h-174zM512 1516l160 317h368l-368 -317h-160z" />
<glyph unicode="&#xde;" horiz-adv-x="1366" d="M63 0v236h175v919h-175v236h730v-236h-193v-78h201q253 0 389.5 -96.5t136.5 -284.5q0 -178 -132 -280.5t-384 -102.5h-211v-77h193v-236h-730zM600 520h135q94 0 148.5 42.5t54.5 131.5t-56 132.5t-147 43.5h-135v-350z" />
<glyph unicode="&#xdf;" horiz-adv-x="1323" d="M45 0v223h164v752q0 197 106 303q71 71 158.5 104t208.5 33q220 0 347.5 -90.5t127.5 -245.5q0 -97 -54.5 -170t-158.5 -116q143 -47 211 -141t68 -244q0 -195 -102 -308.5t-277 -113.5q-80 0 -152 30v207q30 -12 60 -12q153 0 153 203q0 72 -15 122t-45 77t-66.5 39 t-86.5 14v225q71 3 113.5 44t42.5 107q0 69 -46 114.5t-116 45.5q-88 0 -126 -57.5t-38 -179.5v-742h70v-223h-547z" />
<glyph unicode="&#xe0;" horiz-adv-x="1193" d="M82 289q0 141 112 233t285 92q61 0 106.5 -10t112.5 -33v54q0 75 -50.5 122.5t-133.5 47.5q-53 0 -93.5 -18t-82.5 -58l-250 43q58 118 172 173.5t297 55.5q238 0 346.5 -88.5t108.5 -281.5v-398h155v-223h-469v76q-129 -90 -262 -90q-152 0 -253 86.5t-101 216.5z M272 1411h369l160 -317h-160zM379 307q0 -55 36.5 -92t90.5 -37q45 0 87.5 22.5t104.5 78.5v79q-109 70 -178 70q-61 0 -101 -34t-40 -87z" />
<glyph unicode="&#xe1;" horiz-adv-x="1193" d="M82 289q0 141 112 233t285 92q61 0 106.5 -10t112.5 -33v54q0 75 -50.5 122.5t-133.5 47.5q-53 0 -93.5 -18t-82.5 -58l-250 43q58 118 172 173.5t297 55.5q238 0 346.5 -88.5t108.5 -281.5v-398h155v-223h-469v76q-129 -90 -262 -90q-152 0 -253 86.5t-101 216.5z M379 307q0 -55 36.5 -92t90.5 -37q45 0 87.5 22.5t104.5 78.5v79q-109 70 -178 70q-61 0 -101 -34t-40 -87zM393 1094l160 317h369l-369 -317h-160z" />
<glyph unicode="&#xe2;" horiz-adv-x="1193" d="M82 289q0 141 112 233t285 92q61 0 106.5 -10t112.5 -33v54q0 75 -50.5 122.5t-133.5 47.5q-53 0 -93.5 -18t-82.5 -58l-250 43q58 118 172 173.5t297 55.5q238 0 346.5 -88.5t108.5 -281.5v-398h155v-223h-469v76q-129 -90 -262 -90q-152 0 -253 86.5t-101 216.5z M205 1065l241 369h302l243 -369h-174l-223 219l-209 -219h-180zM379 307q0 -55 36.5 -92t90.5 -37q45 0 87.5 22.5t104.5 78.5v79q-109 70 -178 70q-61 0 -101 -34t-40 -87z" />
<glyph unicode="&#xe3;" horiz-adv-x="1193" d="M82 289q0 141 112 233t285 92q61 0 106.5 -10t112.5 -33v54q0 75 -50.5 122.5t-133.5 47.5q-53 0 -93.5 -18t-82.5 -58l-250 43q58 118 172 173.5t297 55.5q238 0 346.5 -88.5t108.5 -281.5v-398h155v-223h-469v76q-129 -90 -262 -90q-152 0 -253 86.5t-101 216.5z M207 1087q0 145 63 230q62 90 168 90q51 0 113.5 -29.5t118 -58.5t88.5 -29q35 0 60 32t28 81h143q4 -140 -64.5 -231t-168.5 -91q-54 0 -169.5 57.5t-150.5 57.5q-37 0 -58 -28.5t-22 -80.5h-149zM379 307q0 -55 36.5 -92t90.5 -37q45 0 87.5 22.5t104.5 78.5v79 q-109 70 -178 70q-61 0 -101 -34t-40 -87z" />
<glyph unicode="&#xe4;" horiz-adv-x="1193" d="M82 289q0 141 112 233t285 92q61 0 106.5 -10t112.5 -33v54q0 75 -50.5 122.5t-133.5 47.5q-53 0 -93.5 -18t-82.5 -58l-250 43q58 118 172 173.5t297 55.5q238 0 346.5 -88.5t108.5 -281.5v-398h155v-223h-469v76q-129 -90 -262 -90q-152 0 -253 86.5t-101 216.5z M225 1249q0 60 42 102t102 42t102.5 -42t42.5 -102t-42.5 -102.5t-102.5 -42.5t-102 42.5t-42 102.5zM379 307q0 -55 36.5 -92t90.5 -37q45 0 87.5 22.5t104.5 78.5v79q-109 70 -178 70q-61 0 -101 -34t-40 -87zM680 1249q0 60 41.5 102t101.5 42t103 -42t43 -102 t-43 -102.5t-103 -42.5t-101.5 42.5t-41.5 102.5z" />
<glyph unicode="&#xe5;" horiz-adv-x="1193" d="M82 289q0 141 112 233t285 92q61 0 106.5 -10t112.5 -33v54q0 75 -50.5 122.5t-133.5 47.5q-53 0 -93.5 -18t-82.5 -58l-250 43q58 118 172 173.5t297 55.5q238 0 346.5 -88.5t108.5 -281.5v-398h155v-223h-469v76q-129 -90 -262 -90q-152 0 -253 86.5t-101 216.5z M379 307q0 -55 36.5 -92t90.5 -37q45 0 87.5 22.5t104.5 78.5v79q-109 70 -178 70q-61 0 -101 -34t-40 -87zM385 1268q0 88 61.5 149.5t149.5 61.5t150.5 -61.5t62.5 -149.5t-62.5 -150.5t-150.5 -62.5t-149.5 62.5t-61.5 150.5zM487 1268q0 -46 31.5 -78.5t77.5 -32.5 t78.5 32.5t32.5 78.5q0 45 -32.5 76.5t-78.5 31.5t-77.5 -31t-31.5 -77z" />
<glyph unicode="&#xe6;" horiz-adv-x="1812" d="M119 764q62 116 177.5 171.5t293.5 55.5q212 0 346 -94q122 94 297 94q247 0 381.5 -152.5t132.5 -414.5h-709q8 -108 70 -173t158 -65q62 0 113.5 25.5t111.5 85.5l240 -74q-69 -117 -193.5 -181.5t-282.5 -64.5q-136 0 -250 53t-186 150q-105 -109 -190 -156t-180 -47 q-142 0 -235 88.5t-93 223.5q0 146 102.5 235.5t268.5 89.5q116 0 233 -47v31q0 97 -54.5 145t-131.5 48q-84 0 -174 -72zM416 297q0 -51 29 -84t73 -33q88 0 207 107v71q-61 42 -99 58t-77 16q-57 0 -95 -39t-38 -96zM1036 594h398q-15 88 -70 138t-137 50 q-79 0 -130.5 -50.5t-60.5 -137.5z" />
<glyph unicode="&#xe7;" horiz-adv-x="1153" d="M66 485q0 215 138.5 356.5t350.5 141.5q151 0 293 -94v80h213v-394h-213q-75 162 -238 162q-104 0 -165.5 -68t-61.5 -182q0 -126 58 -198t161 -72q72 0 138.5 42.5t107.5 117.5l239 -107q-72 -153 -188.5 -223t-298.5 -70l-4 -14q88 -10 139 -58t51 -118 q0 -56 -21.5 -96t-62.5 -63.5t-100 -36.5t-133 -15t-162 2v103q45 0 75 2t65 9.5t53 24.5t18 43q0 63 -121 72l49 168q-178 41 -279 169.5t-101 315.5z" />
<glyph unicode="&#xe8;" horiz-adv-x="1173" d="M76 467q0 227 147.5 375.5t374.5 148.5q109 0 204.5 -41t164 -113.5t104.5 -181t27 -235.5h-709q1 -44 14 -85t39.5 -77.5t74 -58t110.5 -21.5q61 0 109 24t116 89l246 -76q-153 -238 -475 -238q-252 0 -399.5 132t-147.5 358zM262 1411h369l160 -317h-160zM389 592h404 q-12 92 -66 144t-139 52q-172 0 -199 -196z" />
<glyph unicode="&#xe9;" horiz-adv-x="1173" d="M76 467q0 227 147.5 375.5t374.5 148.5q109 0 204.5 -41t164 -113.5t104.5 -181t27 -235.5h-709q1 -44 14 -85t39.5 -77.5t74 -58t110.5 -21.5q61 0 109 24t116 89l246 -76q-153 -238 -475 -238q-252 0 -399.5 132t-147.5 358zM383 1094l160 317h368l-368 -317h-160z M389 592h404q-12 92 -66 144t-139 52q-172 0 -199 -196z" />
<glyph unicode="&#xea;" horiz-adv-x="1173" d="M76 467q0 227 147.5 375.5t374.5 148.5q109 0 204.5 -41t164 -113.5t104.5 -181t27 -235.5h-709q1 -44 14 -85t39.5 -77.5t74 -58t110.5 -21.5q61 0 109 24t116 89l246 -76q-153 -238 -475 -238q-252 0 -399.5 132t-147.5 358zM195 1065l241 369h301l244 -369h-174 l-223 219l-209 -219h-180zM389 592h404q-12 92 -66 144t-139 52q-172 0 -199 -196z" />
<glyph unicode="&#xeb;" horiz-adv-x="1173" d="M76 467q0 227 147.5 375.5t374.5 148.5q109 0 204.5 -41t164 -113.5t104.5 -181t27 -235.5h-709q1 -44 14 -85t39.5 -77.5t74 -58t110.5 -21.5q61 0 109 24t116 89l246 -76q-153 -238 -475 -238q-252 0 -399.5 132t-147.5 358zM215 1249q0 60 41.5 102t101.5 42t103 -42 t43 -102t-43 -102.5t-103 -42.5t-101.5 42.5t-41.5 102.5zM389 592h404q-12 92 -66 144t-139 52q-172 0 -199 -196zM670 1249q0 60 41.5 102t101.5 42t102.5 -42t42.5 -102t-42.5 -102.5t-102.5 -42.5t-101.5 42.5t-41.5 102.5z" />
<glyph unicode="&#xec;" d="M39 1411h369l159 -317h-159zM88 0v223h141v522h-141v224h455v-746h141v-223h-596z" />
<glyph unicode="&#xed;" d="M88 0v223h141v522h-141v224h455v-746h141v-223h-596zM160 1094l159 317h369l-369 -317h-159z" />
<glyph unicode="&#xee;" d="M-29 1065l242 369h301l244 -369h-174l-224 219l-208 -219h-181zM88 0v223h141v522h-141v224h455v-746h141v-223h-596z" />
<glyph unicode="&#xef;" d="M-8 1249q0 60 41.5 102t101.5 42t103 -42t43 -102t-43 -102.5t-103 -42.5t-101.5 42.5t-41.5 102.5zM88 0v223h141v522h-141v224h455v-746h141v-223h-596zM446 1249q0 60 42 102t102 42t102.5 -42t42.5 -102t-42.5 -102.5t-102.5 -42.5t-102 42.5t-42 102.5z" />
<glyph unicode="&#xf0;" horiz-adv-x="1173" d="M82 489q0 117 42.5 215.5t110.5 160.5t148.5 96t159.5 34q116 0 207 -71l4 4q-47 90 -183 196l-258 -100l-133 100l256 101q-96 70 -162 100l222 88q97 -42 172 -96l245 96l138 -102l-256 -99q149 -142 232 -317.5t83 -329.5q0 -267 -143 -425t-385 -158 q-221 0 -360.5 141.5t-139.5 365.5zM399 504q0 -283 191 -283q94 0 148.5 74.5t54.5 202.5q0 120 -52 189t-143 69q-88 0 -143.5 -70t-55.5 -182z" />
<glyph unicode="&#xf1;" horiz-adv-x="1280" d="M74 0v223h149v522h-149v224h463v-90q75 56 140 80t138 24q41 0 80 -9t79 -32.5t69.5 -59.5t48 -95t18.5 -134v-430h141v-223h-454v614q0 109 -90 109q-81 0 -170 -64v-436h129v-223h-592zM250 1087q0 145 63 230q62 90 168 90q51 0 113.5 -29.5t118 -58.5t88.5 -29 q35 0 60 32t28 81h143q4 -140 -64.5 -231t-168.5 -91q-54 0 -169.5 57.5t-150.5 57.5q-37 0 -58 -28.5t-22 -80.5h-149z" />
<glyph unicode="&#xf2;" horiz-adv-x="1173" d="M78 485q0 123 42 221.5t114 159.5t162 93t190 32q143 0 257.5 -57.5t183.5 -174t69 -274.5q0 -228 -141 -368t-369 -140q-222 0 -365 136.5t-143 371.5zM262 1411h369l160 -317h-160zM395 479q0 -123 51 -192.5t140 -69.5q92 0 142 70t50 198q0 127 -50 197t-142 70 t-141.5 -71t-49.5 -202z" />
<glyph unicode="&#xf3;" horiz-adv-x="1173" d="M78 485q0 123 42 221.5t114 159.5t162 93t190 32q143 0 257.5 -57.5t183.5 -174t69 -274.5q0 -228 -141 -368t-369 -140q-222 0 -365 136.5t-143 371.5zM383 1094l160 317h368l-368 -317h-160zM395 479q0 -123 51 -192.5t140 -69.5q92 0 142 70t50 198q0 127 -50 197 t-142 70t-141.5 -71t-49.5 -202z" />
<glyph unicode="&#xf4;" horiz-adv-x="1173" d="M78 485q0 123 42 221.5t114 159.5t162 93t190 32q143 0 257.5 -57.5t183.5 -174t69 -274.5q0 -228 -141 -368t-369 -140q-222 0 -365 136.5t-143 371.5zM195 1065l241 369h301l244 -369h-174l-223 219l-209 -219h-180zM395 479q0 -123 51 -192.5t140 -69.5q92 0 142 70 t50 198q0 127 -50 197t-142 70t-141.5 -71t-49.5 -202z" />
<glyph unicode="&#xf5;" horiz-adv-x="1173" d="M78 485q0 123 42 221.5t114 159.5t162 93t190 32q143 0 257.5 -57.5t183.5 -174t69 -274.5q0 -228 -141 -368t-369 -140q-222 0 -365 136.5t-143 371.5zM197 1087q0 145 63 230q62 90 168 90q51 0 113.5 -29.5t118 -58.5t88.5 -29q35 0 60 32t28 81h143 q4 -140 -64.5 -231t-169.5 -91q-54 0 -169 57.5t-150 57.5q-37 0 -58 -28.5t-22 -80.5h-149zM395 479q0 -123 51 -192.5t140 -69.5q92 0 142 70t50 198q0 127 -50 197t-142 70t-141.5 -71t-49.5 -202z" />
<glyph unicode="&#xf6;" horiz-adv-x="1173" d="M78 485q0 123 42 221.5t114 159.5t162 93t190 32q143 0 257.5 -57.5t183.5 -174t69 -274.5q0 -228 -141 -368t-369 -140q-222 0 -365 136.5t-143 371.5zM215 1249q0 60 41.5 102t101.5 42t103 -42t43 -102t-43 -102.5t-103 -42.5t-101.5 42.5t-41.5 102.5zM395 479 q0 -123 51 -192.5t140 -69.5q92 0 142 70t50 198q0 127 -50 197t-142 70t-141.5 -71t-49.5 -202zM670 1249q0 60 41.5 102t101.5 42t102.5 -42t42.5 -102t-42.5 -102.5t-102.5 -42.5t-101.5 42.5t-41.5 102.5z" />
<glyph unicode="&#xf7;" horiz-adv-x="1368" d="M119 561v260h1128v-260h-1128zM530 264q0 63 44.5 107.5t107.5 44.5t108.5 -44.5t45.5 -107.5t-45.5 -108t-108.5 -45t-107.5 45t-44.5 108zM530 1120q0 63 44.5 107.5t107.5 44.5t108.5 -44.5t45.5 -107.5t-45.5 -108t-108.5 -45t-107.5 45t-44.5 108z" />
<glyph unicode="&#xf8;" horiz-adv-x="1173" d="M78 483q0 117 41.5 214.5t112 161t162 98t192.5 34.5q159 0 286 -78l123 144l95 -84l-119 -137q125 -134 125 -353q0 -151 -68.5 -268t-183 -177.5t-254.5 -60.5q-169 0 -287 78l-121 -143l-96 88l119 131q-60 65 -93.5 156.5t-33.5 195.5zM395 496q0 -59 19 -121 l284 336q-47 41 -110 41q-88 0 -140.5 -69.5t-52.5 -186.5zM477 258q47 -41 113 -41q88 0 138 70t50 190q0 56 -16 115z" />
<glyph unicode="&#xf9;" horiz-adv-x="1280" d="M29 745v224h454v-604q0 -71 20.5 -98t74.5 -27q71 0 165 69v436h-129v224h443v-746h149v-223h-463v82q-137 -96 -276 -96q-138 0 -217.5 80.5t-79.5 220.5v458h-141zM315 1411h369l160 -317h-160z" />
<glyph unicode="&#xfa;" horiz-adv-x="1280" d="M29 745v224h454v-604q0 -71 20.5 -98t74.5 -27q71 0 165 69v436h-129v224h443v-746h149v-223h-463v82q-137 -96 -276 -96q-138 0 -217.5 80.5t-79.5 220.5v458h-141zM436 1094l160 317h369l-369 -317h-160z" />
<glyph unicode="&#xfb;" horiz-adv-x="1280" d="M29 745v224h454v-604q0 -71 20.5 -98t74.5 -27q71 0 165 69v436h-129v224h443v-746h149v-223h-463v82q-137 -96 -276 -96q-138 0 -217.5 80.5t-79.5 220.5v458h-141zM248 1065l241 369h302l243 -369h-174l-223 219l-209 -219h-180z" />
<glyph unicode="&#xfc;" horiz-adv-x="1280" d="M29 745v224h454v-604q0 -71 20.5 -98t74.5 -27q71 0 165 69v436h-129v224h443v-746h149v-223h-463v82q-137 -96 -276 -96q-138 0 -217.5 80.5t-79.5 220.5v458h-141zM268 1249q0 60 42 102t102 42t102.5 -42t42.5 -102t-42.5 -102.5t-102.5 -42.5t-102 42.5t-42 102.5z M723 1249q0 60 41.5 102t101.5 42t103 -42t43 -102t-43 -102.5t-103 -42.5t-101.5 42.5t-41.5 102.5z" />
<glyph unicode="&#xfd;" horiz-adv-x="1216" d="M8 745v224h561v-224h-94l162 -434l172 434h-104v224h491v-224h-141l-465 -1179h-338v223h184l64 172l-350 784h-142zM406 1094l159 317h369l-369 -317h-159z" />
<glyph unicode="&#xfe;" horiz-adv-x="1280" d="M35 -211h164v1378h-164v224h477v-545q82 79 140 108t136 29q180 0 298 -144.5t118 -365.5q0 -220 -117 -358t-303 -138q-79 0 -140 27.5t-132 93.5v-309h190v-223h-667v223zM510 475q0 -119 51 -188.5t139 -69.5t137.5 69.5t49.5 192.5q0 117 -51 183.5t-140 66.5 t-137.5 -67t-48.5 -187z" />
<glyph unicode="&#xff;" horiz-adv-x="1216" d="M8 745v224h561v-224h-94l162 -434l172 434h-104v224h491v-224h-141l-465 -1179h-338v223h184l64 172l-350 784h-142zM238 1249q0 60 41.5 102t101.5 42t102.5 -42t42.5 -102t-42.5 -102.5t-102.5 -42.5t-101.5 42.5t-41.5 102.5zM692 1249q0 60 42 102t102 42t102.5 -42 t42.5 -102t-42.5 -102.5t-102.5 -42.5t-102 42.5t-42 102.5z" />
<glyph unicode="&#x152;" horiz-adv-x="2068" d="M98 688q0 336 193 529q94 94 228 134t366 40h1110v-443h-264v207h-402v-321h322v-236h-322v-362h402v208h264v-444h-1170q-151 0 -274 37.5t-206 101.5t-139.5 152.5t-82 187.5t-25.5 209zM475 696q0 -101 23.5 -183t71.5 -144.5t127 -96.5t184 -34h86v917h-123 q-87 0 -154 -28t-107 -72t-65 -106.5t-34 -123t-9 -129.5z" />
<glyph unicode="&#x153;" horiz-adv-x="2068" d="M47 481q0 68 18 136t61 136t105.5 120.5t160.5 85t218 32.5q126 0 223.5 -33.5t194.5 -109.5q68 68 171.5 105.5t223.5 37.5q133 0 245.5 -51t182 -132.5t103 -183t20.5 -202.5h-792q10 -109 86.5 -172.5t195.5 -63.5q166 0 265 111l245 -74q-54 -114 -189.5 -180 t-316.5 -66q-288 0 -440 140q-96 -74 -195.5 -107t-228.5 -33q-133 0 -241 42t-176 113t-104 160.5t-36 188.5zM365 489q0 -132 72 -219.5t179 -87.5t176.5 88t69.5 224q0 126 -70 208t-176 82q-107 0 -179 -84.5t-72 -210.5zM1192 594h477q-20 89 -86 140.5t-160 51.5 q-91 0 -156 -53.5t-75 -138.5z" />
<glyph unicode="&#x178;" horiz-adv-x="1429" d="M-8 1155v236h684v-236h-127l211 -340l203 340h-121v236h596v-236h-174l-363 -545v-374h197v-236h-746v236h197v374l-383 545h-174zM344 1671q0 60 41.5 102t101.5 42t103 -42t43 -102t-43 -102.5t-103 -42.5t-101.5 42.5t-41.5 102.5zM799 1671q0 60 41.5 102t101.5 42 t102.5 -42t42.5 -102t-42.5 -102.5t-102.5 -42.5t-101.5 42.5t-41.5 102.5z" />
<glyph unicode="&#x2c6;" horiz-adv-x="681" d="M-51 1065l241 369h302l243 -369h-174l-223 219l-209 -219h-180z" />
<glyph unicode="&#x2dc;" horiz-adv-x="681" d="M-49 1087q0 145 63 230q62 90 168 90q51 0 113.5 -29.5t118 -58.5t88.5 -29q35 0 60 32t28 81h143q4 -140 -64.5 -231t-168.5 -91q-54 0 -169.5 57.5t-150.5 57.5q-37 0 -58 -28.5t-22 -80.5h-149z" />
<glyph unicode="&#x2000;" horiz-adv-x="950" />
<glyph unicode="&#x2001;" horiz-adv-x="1901" />
<glyph unicode="&#x2002;" horiz-adv-x="950" />
<glyph unicode="&#x2003;" horiz-adv-x="1901" />
<glyph unicode="&#x2004;" horiz-adv-x="633" />
<glyph unicode="&#x2005;" horiz-adv-x="475" />
<glyph unicode="&#x2006;" horiz-adv-x="316" />
<glyph unicode="&#x2007;" horiz-adv-x="316" />
<glyph unicode="&#x2008;" horiz-adv-x="237" />
<glyph unicode="&#x2009;" horiz-adv-x="380" />
<glyph unicode="&#x200a;" horiz-adv-x="105" />
<glyph unicode="&#x2010;" horiz-adv-x="704" d="M72 348v270h559v-270h-559z" />
<glyph unicode="&#x2011;" horiz-adv-x="704" d="M72 348v270h559v-270h-559z" />
<glyph unicode="&#x2012;" horiz-adv-x="704" d="M72 348v270h559v-270h-559z" />
<glyph unicode="&#x2013;" horiz-adv-x="1024" d="M-12 387v250h1048v-250h-1048z" />
<glyph unicode="&#x2014;" horiz-adv-x="2048" d="M-12 387v250h2072v-250h-2072z" />
<glyph unicode="&#x2018;" d="M195 688v336q0 191 77.5 279t255.5 88v-152q-87 -11 -126.5 -60.5t-39.5 -154.5h168v-336h-335z" />
<glyph unicode="&#x2019;" d="M195 1055v336h335v-336q0 -191 -77.5 -279t-255.5 -88v152q87 11 126 60.5t39 154.5h-167z" />
<glyph unicode="&#x201a;" d="M195 0v336h335v-336q0 -191 -77.5 -279t-255.5 -88v152q87 11 126 60.5t39 154.5h-167z" />
<glyph unicode="&#x201c;" horiz-adv-x="1216" d="M186 688v336q0 191 78 279t256 88v-152q-89 -11 -127.5 -60t-38.5 -155h168v-336h-336zM696 688v336q0 191 78 279t256 88v-152q-88 -11 -127 -61t-39 -154h168v-336h-336z" />
<glyph unicode="&#x201d;" horiz-adv-x="1216" d="M184 1055v336h336v-336q0 -191 -78 -279t-256 -88v152q87 11 126.5 60.5t39.5 154.5h-168zM694 1055v336h336v-336q0 -191 -78 -279t-256 -88v152q87 11 126.5 60.5t39.5 154.5h-168z" />
<glyph unicode="&#x201e;" horiz-adv-x="1216" d="M184 0v336h336v-336q0 -191 -78 -279t-256 -88v152q87 11 126.5 60.5t39.5 154.5h-168zM694 0v336h336v-336q0 -191 -78 -279t-256 -88v152q87 11 126.5 60.5t39.5 154.5h-168z" />
<glyph unicode="&#x2022;" d="M78 698q0 119 83 202t201 83q119 0 203 -83.5t84 -201.5t-84 -202t-203 -84q-118 0 -201 83.5t-83 202.5z" />
<glyph unicode="&#x2026;" horiz-adv-x="2048" d="M174 0v336h336v-336h-336zM856 0v336h336v-336h-336zM1538 0v336h336v-336h-336z" />
<glyph unicode="&#x202f;" horiz-adv-x="380" />
<glyph unicode="&#x2039;" horiz-adv-x="555" d="M10 483l232 486h295l-226 -486l226 -483h-295z" />
<glyph unicode="&#x203a;" horiz-adv-x="555" d="M18 0l226 483l-226 486h295l232 -486l-232 -483h-295z" />
<glyph unicode="&#x205f;" horiz-adv-x="475" />
<glyph unicode="&#x20ac;" horiz-adv-x="1130" d="M4 475v160h105v61v66h-105v160h121q39 229 154 361t290 132q85 0 142.5 -25t119.5 -87v88h181v-404h-176q-3 7 -10.5 27.5t-10 27.5t-9 22t-11.5 23.5t-13 20t-18 22.5q-30 33 -62 46.5t-84 13.5q-90 0 -131.5 -68t-54.5 -200h285v-160h-291v-70v-57h291v-160h-283 q13 -130 52.5 -199t119.5 -69q99 0 148 56t65 167l230 -53q-20 -101 -56.5 -174.5t-79.5 -115t-101 -66t-109.5 -32t-116.5 -7.5q-90 0 -163 27.5t-123 73.5t-87 111t-57.5 133t-32.5 148h-119z" />
<glyph unicode="&#x2122;" horiz-adv-x="2048" d="M147 1249v142h666v-142h-246v-676h-166v676h-254zM909 573v818h260l148 -564h4l147 564h261v-818h-158v652h-4l-174 -652h-152l-170 652h-4v-652h-158z" />
<glyph unicode="&#xe000;" horiz-adv-x="972" d="M0 0v973h973v-973h-973z" />
</font>
</defs>
</svg>
